<svg width="54" height="50" viewBox="0 0 54 50" fill="none" xmlns="http://www.w3.org/2000/svg">
<path d="M26.6626 41.6344C27.2367 41.6344 27.7021 41.169 27.7021 40.5949C27.7021 40.0208 27.2367 39.5554 26.6626 39.5554C26.0885 39.5554 25.6231 40.0208 25.6231 40.5949C25.6231 41.169 26.0885 41.6344 26.6626 41.6344Z" fill="white"/>
<path d="M50.3959 40.1628C48.7747 38.6217 46.6475 37.6641 44.4546 37.4657C47.5222 37.0515 49.8953 34.4172 49.8953 31.2377C49.8953 27.7714 47.0753 24.9514 43.609 24.9514C40.1427 24.9514 37.3227 27.7714 37.3227 31.2377C37.3227 34.4154 39.693 37.0479 42.7579 37.4648C40.4385 37.6696 38.1966 38.6945 36.6027 40.2529C36.2686 39.8178 35.9072 39.4046 35.5195 39.0159C33.3894 36.8849 30.625 35.6169 27.652 35.3857C31.801 34.8951 35.0297 31.3569 35.0297 27.0787C35.0297 22.4654 31.2767 18.7133 26.6644 18.7133C22.0521 18.7133 18.2991 22.4663 18.2991 27.0787C18.2991 31.3605 21.5323 34.9006 25.6859 35.3866C23.8153 35.5332 21.9975 36.0948 20.3772 37.0379C18.9617 37.8607 17.7201 38.9585 16.7252 40.2529C15.1313 38.6945 12.8894 37.6687 10.57 37.4648C13.6349 37.0479 16.0052 34.4154 16.0052 31.2377C16.0052 27.7714 13.1852 24.9514 9.7189 24.9514C6.25261 24.9514 3.43261 27.7714 3.43261 31.2377C3.43261 34.4172 5.80567 37.0515 8.87327 37.4657C6.68044 37.6632 4.55315 38.6217 2.93196 40.1628C1.04043 41.9597 0 44.3282 0 46.8323V48.9114C0 49.5121 0.486992 50 1.08868 50H52.2374C52.8382 50 53.3261 49.5131 53.3261 48.9114V46.8323C53.3261 44.3282 52.2856 41.9597 50.3959 40.1628ZM39.4991 31.2377C39.4991 28.9711 41.3424 27.1278 43.609 27.1278C45.8755 27.1278 47.7188 28.9711 47.7188 31.2377C47.7188 33.5042 45.8755 35.3475 43.609 35.3475C41.3424 35.3475 39.4991 33.5042 39.4991 31.2377ZM20.4737 27.0796C20.4737 23.667 23.25 20.8907 26.6626 20.8907C30.0752 20.8907 32.8515 23.667 32.8515 27.0796C32.8515 30.4921 30.0752 33.2685 26.6626 33.2685C23.25 33.2685 20.4737 30.4921 20.4737 27.0796ZM5.60723 31.2377C5.60723 28.9711 7.45052 27.1278 9.71708 27.1278C11.9836 27.1278 13.8269 28.9711 13.8269 31.2377C13.8269 33.5042 11.9836 35.3475 9.71708 35.3475C7.45052 35.3475 5.60723 33.5042 5.60723 31.2377ZM2.17644 46.8323C2.17644 42.9136 5.62999 39.6039 9.71708 39.6039C11.9427 39.6039 14.1492 40.5843 15.5237 42.1445C14.6234 43.894 14.1473 45.841 14.1392 47.8227H2.17644V46.8314V46.8323ZM16.3156 47.8236C16.3247 45.9785 16.8235 44.1716 17.7602 42.5941C19.6189 39.4674 23.0306 37.5249 26.6626 37.5249C29.4271 37.5249 32.0259 38.6008 33.9793 40.556C34.591 41.1677 35.1244 41.8532 35.565 42.5941C36.5025 44.1716 37.0014 45.9794 37.0105 47.8236H16.3156ZM51.1496 47.8236H39.1869C39.1796 45.8419 38.7027 43.8949 37.8024 42.1454C39.1769 40.5852 41.3834 39.6048 43.609 39.6048C47.6961 39.6048 51.1496 42.9154 51.1496 46.8332V47.8245V47.8236Z" fill="white"/>
<path d="M21.8181 10.3433L21.0562 14.7873C20.9861 15.196 21.1545 15.6083 21.4895 15.8514C21.8245 16.0953 22.2687 16.1272 22.6355 15.9342L26.6252 13.836L30.6158 15.9342C30.7751 16.0179 30.949 16.0589 31.1219 16.0589C31.3477 16.0589 31.5725 15.9888 31.7619 15.8514C32.0968 15.6074 32.2643 15.1951 32.1942 14.7863L31.4314 10.3424L34.6601 7.19565C34.9569 6.90618 35.0634 6.47381 34.936 6.07966C34.8076 5.68552 34.4672 5.39878 34.0576 5.33871L29.5991 4.69151L27.6029 0.609878C27.4199 0.236669 27.0412 0 26.6252 0C26.2092 0 25.8306 0.236669 25.6476 0.609878L23.6514 4.69151L19.1929 5.33871C18.7833 5.39787 18.442 5.68552 18.3145 6.07966C18.1862 6.47381 18.2936 6.90618 18.5903 7.19565L21.819 10.3424L21.8181 10.3433ZM24.5325 6.76418C24.8885 6.7123 25.1961 6.48837 25.3536 6.16523L26.6243 3.56642L27.8951 6.16523C28.0534 6.48837 28.3602 6.7123 28.7161 6.76418L31.5607 7.17744L29.5017 9.18367C29.245 9.43399 29.1276 9.79445 29.1885 10.1476L29.6755 12.9822L27.1304 11.6441C26.8137 11.4775 26.435 11.4775 26.1173 11.6441L23.5731 12.9822L24.0592 10.1476C24.1202 9.79445 24.0028 9.43399 23.7461 9.18458L21.6871 7.17835L24.5316 6.76509L24.5325 6.76418Z" fill="white"/>
<path d="M40.5013 17.114L39.987 20.1143C39.917 20.5221 40.0844 20.9353 40.4203 21.1784C40.7553 21.4223 41.1995 21.4542 41.5664 21.2612L44.2616 19.8448L46.9569 21.2612C47.1162 21.3449 47.2901 21.3859 47.463 21.3859C47.6888 21.3859 47.9136 21.3158 48.103 21.1784C48.4379 20.9344 48.6054 20.5221 48.5363 20.1143L48.022 17.114L50.202 14.9886C50.4988 14.6991 50.6053 14.2667 50.4769 13.8726C50.3486 13.4784 50.0082 13.1917 49.5985 13.1316L46.5856 12.6938L45.2384 9.9639C45.0554 9.59251 44.6767 9.35675 44.2626 9.35675C43.8484 9.35675 43.4697 9.5916 43.2868 9.96299L41.9387 12.6938L38.9257 13.1316C38.5161 13.1908 38.1756 13.4784 38.0473 13.8726C37.9189 14.2667 38.0263 14.6991 38.3222 14.9886L40.5023 17.114H40.5013ZM42.8171 14.7665C43.1711 14.7146 43.4779 14.4925 43.6363 14.1711L44.2607 12.905L44.8852 14.1702C45.0436 14.4916 45.3503 14.7146 45.7044 14.7655L47.1017 14.9685L46.0904 15.9544C45.8337 16.2047 45.7172 16.5642 45.7772 16.9174L46.0157 18.3083L44.7659 17.652C44.4492 17.4854 44.0705 17.4854 43.7537 17.652L42.503 18.3092L42.7415 16.9183C42.8025 16.5651 42.6851 16.2056 42.4284 15.9553L41.4171 14.9694L42.8143 14.7665H42.8171Z" fill="white"/>
<path d="M5.15483 17.114L4.64053 20.1143C4.57044 20.5221 4.73793 20.9353 5.07382 21.1784C5.26315 21.3158 5.48799 21.3859 5.71373 21.3859C5.88668 21.3859 6.06054 21.3449 6.21984 21.2612L8.91514 19.8448L11.6104 21.2612C11.9773 21.4542 12.4215 21.4214 12.7565 21.1784C13.0914 20.9344 13.2589 20.5221 13.1897 20.1143L12.6754 17.114L14.8555 14.9886C15.1523 14.6991 15.2588 14.2667 15.1304 13.8726C15.0021 13.4784 14.6616 13.1917 14.252 13.1316L11.239 12.6938L9.89185 9.9639C9.70889 9.59251 9.33022 9.35675 8.91605 9.35675C8.50188 9.35675 8.12321 9.5916 7.94024 9.96299L6.59214 12.6938L3.57916 13.1316C3.16954 13.1908 2.8291 13.4784 2.70075 13.8726C2.57241 14.2667 2.67982 14.6991 2.97565 14.9886L5.15574 17.114H5.15483ZM7.47055 14.7665C7.82464 14.7146 8.1314 14.4925 8.28978 14.1711L8.91423 12.905L9.53867 14.1702C9.69705 14.4916 10.0038 14.7146 10.3579 14.7655L11.7552 14.9685L10.7439 15.9544C10.4872 16.2047 10.3707 16.5642 10.4307 16.9174L10.6692 18.3083L9.41942 17.652C9.10265 17.4854 8.72398 17.4854 8.40721 17.652L7.1565 18.3092L7.39499 16.9183C7.45598 16.5651 7.33856 16.2056 7.08186 15.9553L6.07056 14.9694L7.46781 14.7665H7.47055Z" fill="white"/>
<path d="M31.2458 40.8753C30.7433 40.5449 30.0688 40.685 29.7384 41.1875C29.4079 41.69 29.5481 42.3645 30.0506 42.6949C31.0045 43.3221 31.7674 44.195 32.2553 45.2209C32.4419 45.6123 32.8314 45.8417 33.2383 45.8417C33.3949 45.8417 33.5542 45.808 33.7053 45.7361C34.2478 45.4776 34.479 44.8286 34.2205 44.2861C33.5615 42.9006 32.5329 41.7218 31.2458 40.8762V40.8753Z" fill="white"/>
</svg>
