<svg width="59" height="50" viewBox="0 0 59 50" fill="none" xmlns="http://www.w3.org/2000/svg">
<path d="M38.5804 17.8739C36.0718 16.9063 33.2436 17.3796 31.1856 19.11L29.1712 20.804L27.1568 19.1027C25.0997 17.3796 22.2634 16.9063 19.762 17.8666C17.2534 18.8333 15.472 21.0807 15.1016 23.7422V23.7713C14.4762 29.4504 14.5481 35.0129 15.3191 40.2923C15.3191 40.2996 15.3191 40.3069 15.3264 40.3141V40.3369C15.675 42.263 17.3626 43.6374 19.2823 43.6374C19.4425 43.6374 19.5954 43.6292 19.7547 43.6083C20.1689 43.5573 20.5548 43.449 20.918 43.2888L21.0564 48.7858C21.0719 49.4548 21.6244 49.9928 22.2925 49.9928H22.3216C23.0052 49.9782 23.5432 49.4102 23.5286 48.7275L23.3029 39.7261C23.3029 39.6169 23.3029 39.5077 23.2956 39.3921C23.2956 39.3702 23.2883 39.3556 23.2883 39.3411L22.9615 26.4274C22.947 25.7438 22.3799 25.2059 21.6963 25.2205C21.0127 25.235 20.4747 25.8021 20.4893 26.4857L20.8243 39.7125C20.7806 40.4543 20.2135 41.0733 19.4644 41.1597C18.657 41.2535 17.9151 40.7083 17.7631 39.9091C17.0276 34.8554 16.9557 29.525 17.5592 24.0717C17.8059 22.3122 18.9919 20.8149 20.6568 20.1741C22.3216 19.5342 24.2058 19.8473 25.5721 20.996L28.3784 23.3663C28.3857 23.3745 28.4002 23.3818 28.4075 23.389C28.4221 23.4036 28.4366 23.4109 28.4503 23.4245C28.4721 23.4391 28.494 23.4537 28.5158 23.4682C28.5304 23.4755 28.5377 23.4828 28.5522 23.4901C28.5887 23.5119 28.6251 23.5265 28.6606 23.5483C28.666 23.5483 28.6712 23.5508 28.676 23.5556C28.7115 23.5702 28.7416 23.5848 28.7771 23.5993C28.7844 23.5993 28.7989 23.6066 28.8062 23.6066C28.8353 23.6139 28.8635 23.6212 28.8936 23.6284C28.9081 23.6284 28.9145 23.6357 28.9291 23.6357C28.9582 23.6439 28.9873 23.6439 29.0247 23.6512C29.0319 23.6512 29.0456 23.6512 29.0538 23.6585C29.0975 23.6658 29.133 23.6658 29.1767 23.6658C29.2204 23.6658 29.2568 23.6658 29.3005 23.6585C29.3077 23.6585 29.3223 23.6585 29.3296 23.6512C29.3587 23.6439 29.3878 23.6439 29.4243 23.6357C29.4388 23.6357 29.4461 23.6284 29.4607 23.6284C29.4898 23.6212 29.5189 23.6139 29.5481 23.6066C29.5553 23.6066 29.5699 23.5993 29.5772 23.5993C29.6136 23.5848 29.6418 23.5775 29.6791 23.5556C29.684 23.5556 29.6888 23.5532 29.6937 23.5483C29.7301 23.5338 29.7665 23.5119 29.802 23.4901C29.8175 23.4828 29.8311 23.4755 29.8393 23.4682C29.8603 23.4537 29.8821 23.4391 29.904 23.4245C29.9185 23.4173 29.9331 23.4027 29.9476 23.389C29.9549 23.3818 29.9695 23.3745 29.9768 23.3663L32.784 20.996C34.1503 19.8473 36.0345 19.5342 37.6993 20.1741C39.3641 20.814 40.5493 22.3122 40.7959 24.079C41.5314 29.3648 41.4577 34.687 40.593 39.8936C40.4473 40.6937 39.6991 41.2462 38.8844 41.1516C38.077 41.0569 37.4736 40.3442 37.5172 39.5304C37.5245 39.443 37.5172 39.3484 37.5027 39.2683L37.8231 26.6523C37.8377 25.9687 37.2997 25.4025 36.6161 25.387C35.9325 25.3725 35.3645 25.9104 35.3499 26.594L34.7901 48.7357C34.7756 49.4193 35.3144 49.9864 35.9971 50H36.0263C36.6953 50 37.2478 49.4694 37.2624 48.7931L37.4007 43.2815C37.7721 43.449 38.1644 43.5646 38.5868 43.6156C38.7461 43.6374 38.9072 43.6447 39.0592 43.6447C40.9716 43.6447 42.6665 42.2702 43.0142 40.3442V40.3296C43.9308 34.8681 44.0036 29.292 43.24 23.7504C42.8695 21.0889 41.0881 18.8424 38.5795 17.8757L38.5804 17.8739Z" fill="white"/>
<path d="M29.1849 16.6364C32.8067 16.6364 35.7514 13.6918 35.7514 10.0708C35.7514 6.44988 32.8067 3.50433 29.1849 3.50433C25.563 3.50433 22.6193 6.44897 22.6193 10.0708C22.612 13.6845 25.5648 16.6364 29.1849 16.6364ZM29.1849 5.96928C31.4468 5.96928 33.2791 7.80888 33.2791 10.0636C33.2791 12.3182 31.4395 14.1569 29.1849 14.1569C26.9302 14.1569 25.0915 12.3173 25.0915 10.0636C25.0915 7.80979 26.9238 5.96928 29.1849 5.96928Z" fill="white"/>
<path d="M15.8644 19.7278C16.3076 19.2035 16.2348 18.4262 15.7196 17.982L12.9052 15.6117C10.848 13.8886 8.01076 13.4162 5.51032 14.3756C3.00169 15.3423 1.22034 17.5897 0.848962 20.2512C0.0852671 25.7919 0.158083 31.3689 1.06742 36.8295V36.8441C1.41604 38.772 3.10364 40.1464 5.02334 40.1464C5.18355 40.1464 5.33647 40.1382 5.49576 40.1164C5.91083 40.0663 6.29586 39.9562 6.65905 39.7969L6.79741 45.2647C6.81197 45.9338 7.36358 46.4717 8.03261 46.4717H8.06174C8.74533 46.4572 9.28329 45.8901 9.26872 45.2065L9.04298 36.226C9.04298 36.1177 9.04298 36.0157 9.0357 35.9065C9.0357 35.8919 9.02842 35.8774 9.02842 35.8564L8.70801 22.9273C8.69345 22.2437 8.12728 21.7058 7.44368 21.7204C6.76009 21.7349 6.22214 22.3029 6.2367 22.9856L6.57076 36.2124C6.52707 36.9542 5.95998 37.5723 5.21085 37.6669C4.40347 37.7616 3.65433 37.2091 3.50232 36.409C2.63668 31.2024 2.56386 25.8802 3.29843 20.5944C3.5451 18.8276 4.73115 17.3293 6.39599 16.6894C8.06083 16.0495 9.94503 16.3617 11.3113 17.5105L14.1185 19.8807C14.3588 20.0628 14.6419 20.1647 14.9186 20.1647C15.2672 20.1647 15.6168 20.0118 15.8634 19.7287L15.8644 19.7278Z" fill="white"/>
<path d="M14.9341 13.1321C18.555 13.1321 21.4997 10.1865 21.4997 6.56559C21.4997 2.94464 18.555 0 14.9341 0C11.3131 0 8.36755 2.94464 8.36755 6.56559C8.36755 10.1865 11.3131 13.1321 14.9341 13.1321ZM14.9341 2.47222C17.1951 2.47222 19.0274 4.31183 19.0274 6.56559C19.0274 8.81936 17.1878 10.6599 14.9341 10.6599C12.6803 10.6599 10.8398 8.82027 10.8398 6.56559C10.8398 4.31092 12.6794 2.47222 14.9341 2.47222Z" fill="white"/>
<path d="M43.4302 13.1321C47.0521 13.1321 49.9958 10.1865 49.9958 6.56559C49.9958 2.94464 47.0521 0 43.4302 0C39.8084 0 36.8637 2.94464 36.8637 6.56559C36.8637 10.1865 39.8084 13.1321 43.4302 13.1321ZM43.4302 2.47222C45.6922 2.47222 47.5245 4.31183 47.5245 6.56559C47.5245 8.81936 45.684 10.6599 43.4302 10.6599C41.1764 10.6599 39.3359 8.82027 39.3359 6.56559C39.3359 4.31092 41.1683 2.47222 43.4302 2.47222Z" fill="white"/>
<path d="M57.4853 20.251C57.1148 17.5894 55.3335 15.342 52.8248 14.3753C50.3162 13.4086 47.4872 13.8811 45.43 15.6114L42.6165 17.9817C42.0922 18.425 42.0275 19.2033 42.4708 19.7276C42.7184 20.0179 43.067 20.1636 43.4166 20.1636C43.7006 20.1636 43.9836 20.0689 44.2094 19.8723L47.0157 17.502C48.382 16.3533 50.2662 16.0411 51.931 16.681C53.5958 17.32 54.781 18.8182 55.0286 20.585C55.7631 25.8717 55.6903 31.1939 54.8256 36.4005C54.6799 37.1997 53.9317 37.7531 53.1161 37.6576C52.3097 37.5638 51.7062 36.8502 51.7499 36.0364C51.7571 35.9427 51.7499 35.848 51.7353 35.7606L52.0548 22.9853C52.0703 22.3017 51.5323 21.7346 50.8487 21.7201C50.1642 21.6992 49.598 22.2444 49.5835 22.9271L49.0237 45.2062C49.0082 45.8898 49.5461 46.4569 50.2297 46.4715H50.2598C50.9288 46.4715 51.4813 45.9408 51.495 45.2645L51.6333 39.7821C52.0038 39.9486 52.4034 40.0661 52.8258 40.1161C52.986 40.138 53.1453 40.1462 53.2982 40.1462C55.2106 40.1462 56.9055 38.7717 57.2541 36.8438V36.8292C58.1844 31.3687 58.2572 25.7916 57.4862 20.251H57.4853Z" fill="white"/>
</svg>
