<svg width="51" height="50" viewBox="0 0 51 50" fill="none" xmlns="http://www.w3.org/2000/svg">
<path d="M49.9894 1.20521C49.9539 0.568016 49.4478 0.0609889 48.8106 0.0254879C48.8079 0.0254879 48.8061 0.0254879 48.8024 0.0245776C48.6422 0.0172954 48.1971 0 47.5153 0C45.2751 0 40.7555 0.188428 35.6652 1.44553C29.2432 3.03306 24.0482 5.77574 20.2241 9.60166C18.5701 11.2556 17.1018 13.1873 15.8593 15.3428L15.7692 15.4994L15.7091 15.6032L15.6235 15.5185L13.813 13.7079C13.5818 13.4758 13.2586 13.342 12.9291 13.342C12.7425 13.342 12.5631 13.3821 12.3966 13.4613L0.727656 18.9876C0.277977 19.2015 -0.00239821 19.6621 0.0139869 20.1609L0.628428 37.9697C0.645723 38.4667 0.955224 38.9055 1.41856 39.0875C1.56329 39.1458 1.71804 39.1749 1.87643 39.1749C2.21051 39.1749 2.52364 39.0447 2.7594 38.8081L12.8654 28.7021L12.9309 28.6375L12.9964 28.7021L16.2061 31.9118L16.2707 31.9773L16.2061 32.0429L6.10013 42.1488C5.86437 42.3837 5.73421 42.6968 5.73421 43.0318C5.73421 43.3668 5.86346 43.679 6.10013 43.9148C6.33499 44.1505 6.64813 44.2807 6.9822 44.2807C7.31628 44.2807 7.62941 44.1514 7.86609 43.9148L17.972 33.8079L18.0376 33.7433L18.1031 33.8079L21.3119 37.0175L21.3765 37.0831L21.3119 37.1486L11.2068 47.2546C10.8536 47.606 10.7444 48.1321 10.9265 48.5945C11.1094 49.0579 11.5482 49.3683 12.0461 49.3856L29.854 49.9991C29.8694 50 29.8822 50 29.894 50H29.8977C30.3774 50 30.8198 49.7196 31.0255 49.2854L36.5527 37.6174C36.7776 37.1413 36.6784 36.5724 36.307 36.2001L34.4964 34.3905L34.4117 34.3058L34.5155 34.2448L34.6712 34.1547C36.8285 32.9131 38.7602 31.4448 40.4132 29.7899C42.8455 27.3567 44.8618 24.3309 46.4056 20.7963C47.6309 17.9945 48.5648 14.8667 49.1811 11.4987C50.1897 5.98511 50.0131 1.67765 49.9894 1.2043V1.20521ZM11.804 26.1843L11.7958 26.2216L11.7903 26.248L11.7712 26.2671L3.17631 34.862L3.02703 35.0104L3.01974 34.7992L2.54275 20.9538L2.54093 20.8937L2.59555 20.8682L12.6132 16.1238L12.6724 16.0956L12.7179 16.1411L14.4729 17.8962L14.5175 17.9408L14.4911 17.999L14.452 18.0864C13.3423 20.5223 12.4521 23.2468 11.8058 26.1843H11.804ZM33.8911 37.4026L29.1458 47.4203L29.1203 47.4749L29.0602 47.4731L15.2148 46.9952L15.0036 46.9879L15.152 46.8386L23.7469 38.2446L23.7651 38.2264L23.7906 38.2209L23.8297 38.2118C26.7699 37.5646 29.4944 36.6744 31.9285 35.5656L32.0141 35.5265L32.0732 35.5001L32.1178 35.5447L33.8738 37.2997L33.9193 37.3452L33.8911 37.4044V37.4026ZM47.5171 2.58975V2.72903C47.5053 4.2938 47.386 7.46341 46.7097 11.1218C46.1517 14.1476 45.3133 16.9822 44.2173 19.5447C42.7745 22.9182 40.9002 25.771 38.6473 28.0249C36.773 29.8991 34.501 31.5094 31.893 32.812L31.8784 32.8193H31.8757L31.873 32.8211C31.8056 32.8475 31.7382 32.8821 31.6727 32.9213L31.6709 32.9231H31.6682L31.6563 32.9304C29.2823 34.091 26.5952 35.0177 23.6659 35.6894L23.5912 35.7067L23.5421 35.7177L23.5066 35.6822L19.8673 32.0438L19.8026 31.9782L19.8673 31.9127L25.0604 26.7195C25.2962 26.4847 25.4263 26.1715 25.4263 25.8365C25.4263 25.5016 25.2971 25.1893 25.0604 24.9536C24.8265 24.7178 24.5133 24.5876 24.1784 24.5876C23.8434 24.5876 23.5311 24.7169 23.2954 24.9536L18.1022 30.1467L18.0367 30.2114L17.9711 30.1467L14.3318 26.5083L14.2963 26.4719L14.3082 26.4228L14.3255 26.3481C14.9945 23.4252 15.9212 20.7381 17.0827 18.3613L17.0845 18.3586L17.0863 18.3558L17.0927 18.3449C17.1346 18.273 17.1692 18.2057 17.1937 18.141V18.1383L17.1956 18.1356L17.201 18.1237C18.5055 15.5139 20.1158 13.241 21.99 11.3667C25.4564 7.90125 30.2072 5.39251 36.1112 3.90966C40.8839 2.71082 45.1613 2.51056 47.285 2.49782H47.4242L47.518 2.49599V2.58975H47.5171Z" fill="white"/>
<path d="M34.6175 9.8056C33.1237 9.8056 31.7201 10.3873 30.6641 11.4441C29.6064 12.5 29.0256 13.9037 29.0256 15.3975C29.0256 16.8912 29.6073 18.2949 30.6641 19.3508C31.7192 20.4077 33.1237 20.9884 34.6175 20.9884C36.1113 20.9884 37.5149 20.4068 38.5718 19.3508C39.6259 18.2958 40.2057 16.8922 40.2057 15.3975C40.2057 13.9028 39.625 12.4973 38.5709 11.4441C37.5149 10.3864 36.1113 9.8056 34.6175 9.8056ZM36.8058 17.5849C36.2214 18.1693 35.444 18.4915 34.6175 18.4915C33.791 18.4915 33.0145 18.1693 32.4292 17.5849C31.8448 17.0005 31.5234 16.2231 31.5234 15.3975C31.5234 14.5718 31.8457 13.7936 32.4301 13.2091C32.7214 12.9188 33.0582 12.6921 33.4332 12.5374C33.8073 12.3817 34.206 12.3034 34.6175 12.3034C35.4431 12.3034 36.2205 12.6247 36.8058 13.2091C38.0119 14.4153 38.0119 16.3788 36.8058 17.5849Z" fill="white"/>
</svg>
